<svg width="631" height="242" viewBox="0 0 631 242" fill="none" xmlns="http://www.w3.org/2000/svg">
<path d="M15 40C25 25 40 15 60 10C80 5 105 6 130 12C155 18 175 28 190 42C205 56 215 74 220 96C222 107 222 118 220 129C218 140 214 149 208 156C202 163 194 168 184 171C174 174 162 175 148 174C134 173 120 170 106 165C92 160 80 153 70 144C60 135 53 124 49 111C45 98 44 84 46 69C48 54 53 40 61 27C69 14 80 3 94 -5C108 -13 125 -18 145 -20C165 -22 188 -21 214 -17C240 -13 268 -6 298 4C328 14 358 27 388 43C418 59 446 78 472 100C498 122 521 147 541 175C561 203 577 234 589 268C595 285 599 302 601 319C603 336 603 353 601 370C599 387 595 403 589 418C583 433 575 447 565 460C555 473 543 485 529 496C515 507 499 517 481 526C463 535 443 543 421 550C399 557 375 563 349 568C323 573 295 577 265 580C235 583 203 585 169 586C135 587 99 587 61 586C23 585 -15 583 -55 580" stroke="black" stroke-width="10" fill="none"/>
</svg>