<svg width="631" height="242" viewBox="0 0 631 242" fill="none" xmlns="http://www.w3.org/2000/svg">
<g clip-path="url(#clip0_86_2)">
<path d="M323.388 0.526367C326.042 0.790491 327.54 1.21345 328.771 1.8125C329.413 2.12484 329.995 2.49058 330.645 2.9248C331.232 3.31763 331.885 3.77119 332.666 4.27441C332.798 9.38042 332.645 14.4516 332.049 18.8867C331.441 23.4105 330.38 27.2161 328.742 29.7266L328.208 30.5459L329.185 30.499L350.185 29.499L350.511 29.4844L350.628 29.1797L360.494 3.52637L372.592 4.45703C372.037 8.50691 371.129 13.6192 370.795 18.1768C370.62 20.5609 370.6 22.8291 370.875 24.75C371.148 26.6584 371.725 28.3043 372.813 29.3594L373.007 29.5469L373.27 29.4883C375.477 28.9967 376.756 28.9968 377.892 29.3291C378.999 29.6532 379.998 30.294 381.611 31.2549C381.464 32.1419 381.317 33.0293 381.168 33.917C381.017 34.8201 380.865 35.7241 380.716 36.6279L366.993 41.5293L366.679 41.6416L366.662 41.9746L364.662 80.9746L364.659 81.0283L364.668 81.0811C365.018 83.2107 365.48 85.2654 365.947 87.2842C366.416 89.3074 366.89 91.2907 367.272 93.2979C368.013 97.1816 368.403 101.127 367.732 105.5H363.257L358.578 103.628C357.2 98.6949 356.324 91.0963 355.249 83.2959C354.163 75.4146 352.872 67.3348 350.624 61.8115L349.661 62V63.8535C348.157 66.1729 346.504 69.8111 344.645 73.8213C342.741 77.928 340.605 82.4598 338.148 86.5078C335.688 90.5625 332.935 94.0841 329.815 96.2061C326.73 98.3054 323.291 99.0352 319.365 97.542C316.566 96.1372 315.178 94.3416 314.094 92.2139C313.542 91.1314 313.076 89.9754 312.536 88.7168C312 87.4665 311.399 86.1353 310.594 84.749L310.357 84.3428L307.938 85.5527L307.761 85.6416L307.692 85.8271C305.732 91.1442 302.298 95.1038 298.33 98.6064C296.345 100.359 294.233 101.992 292.106 103.625C290.032 105.218 287.943 106.813 285.97 108.506C278.121 108.794 274.732 107.55 272.234 105.36C270.948 104.233 269.881 102.842 268.559 101.184C267.244 99.5348 265.703 97.6583 263.499 95.6318L263.259 95.4102L262.959 95.543C260.458 96.6473 258.315 97.7787 256.314 98.791C254.308 99.8064 252.445 100.702 250.469 101.364C246.581 102.667 242.208 103.076 235.471 101.557C233.132 97.8548 230.983 94.8684 229.378 91.2441C227.759 87.5873 226.701 83.2808 226.661 76.9971L226.656 76.1934L223.715 77.6641L223.669 77.9092C222.68 83.2521 220.215 89.8997 216.871 95.7305C213.526 101.564 209.352 106.488 204.982 108.53C202.305 109.313 200.323 109.387 198.582 109.004C196.866 108.626 195.34 107.795 193.565 106.664C191.995 102.75 190.989 99.7899 190.39 96.3691C189.781 92.9 189.586 88.9356 189.661 83.0059L189.672 82.1855L186.746 83.6484L186.683 83.8535C183.457 94.3847 176.182 102.604 168.979 109.479L159.293 108.511C153.229 105.831 151.8 100.135 150.649 94.8926L150.512 94.2656L147.938 95.5527L147.733 95.6553L147.677 95.876C146.316 101.185 143.314 107.074 139.07 111.772C134.866 116.426 129.477 119.874 123.293 120.483C122.557 119.968 121.854 119.496 121.187 119.051C120.471 118.573 119.8 118.126 119.168 117.683C117.905 116.795 116.824 115.935 115.922 114.905C114.136 112.868 112.981 110.096 112.66 104.969L112.597 103.95L111.83 104.625C110.034 106.208 107.667 108.692 105.022 111.218C102.355 113.766 99.3619 116.402 96.2305 118.389C93.0944 120.378 89.8656 121.684 86.7178 121.638C83.598 121.591 80.4818 120.215 77.5459 116.681L77.498 116.623L77.4355 116.582L77.123 116.369C73.9414 114.119 72.2226 110.278 71.5293 105.516C70.8144 100.605 71.2036 94.7962 72.1406 88.9629C74.0141 77.3003 78.053 65.6655 79.6328 61.166L80.1113 59.8027L78.8926 60.5781L56.8926 74.5781L56.625 74.749L56.665 75.0635C58.7474 91.3557 65.1118 123.348 64.0342 149.521C63.4951 162.615 61.0942 174.135 55.4541 181.486C52.6444 185.149 49.03 187.778 44.4238 189.061C39.8474 190.335 34.2559 190.289 27.4512 188.557C11.2713 167.528 2.89174 145.626 4.33203 125.329C5.77382 105.012 17.0625 86.209 40.4287 71.4229L40.668 71.2715L40.6611 70.9883C40.5197 65.1339 38.983 56.8635 36.6211 49.2959C35.4392 45.5092 34.0463 41.8849 32.5107 38.8174C30.9797 35.7588 29.2876 33.2159 27.4922 31.626L26.6611 30.8896V33.6865C22.6877 35.6399 19.2422 38.9144 16.1816 42.5176C13.1167 46.1259 10.3932 50.1169 7.91699 53.4854C5.83697 53.3751 4.59649 53.2038 3.58398 52.9199C2.58965 52.6411 1.79739 52.2508 0.609375 51.6631C0.13248 48.6912 1.24029 44.6464 3.46484 40.2236C5.73842 35.7035 9.13246 30.879 12.9912 26.5674C16.8511 22.2545 21.1574 18.4757 25.2461 16.0312C29.361 13.5712 33.1387 12.5308 36.0049 13.4746C36.8999 13.7698 37.8407 14.5237 38.8047 15.7207C39.763 16.9106 40.7094 18.4954 41.6289 20.3779C43.4675 24.1419 45.168 29.0351 46.6279 34.1924C49.5496 44.513 51.4829 55.7923 51.6611 61.0166L51.6807 61.5742L52.2324 61.4951C62.7887 59.9755 71.9361 54.1929 80.0156 47.3115C84.0575 43.869 87.842 40.1424 91.4082 36.5234C94.9243 32.9554 98.2191 29.5031 101.356 26.5059C104.559 26.5755 106.541 26.9119 108.141 27.5254C109.717 28.1299 110.953 29.0124 112.661 30.2559V35.832C99.0142 54.0765 81.346 75.4147 85.665 109.063L85.7363 109.621L86.2822 109.485C96.2864 106.984 103.435 100.282 109.13 91.8242C114.818 83.3767 119.094 73.118 123.325 63.4492C127.57 53.7488 131.764 44.6586 137.291 38.4102C140.047 35.2942 143.121 32.9026 146.68 31.4951C150.204 30.1014 154.234 29.6614 158.95 30.4717L163.681 34.2568C164.525 43.5081 163.185 53.5901 162.407 63.7051C161.627 73.8584 161.422 84.0199 164.69 93.168L164.905 93.7715L168.553 91.3398L168.612 91.2148L199.479 26.4941C204.623 26.3881 207.782 26.9526 210.673 28.3223C210.801 31.6239 210.293 35.5552 209.519 39.8428C208.718 44.2767 207.658 48.9845 206.742 53.79C205.832 58.5663 205.078 63.3754 204.921 67.876C204.764 72.374 205.201 76.5996 206.699 80.1924L207.111 81.1787L207.604 80.2314L232.473 32.4834C235.443 32.3144 237.689 32.1854 239.491 32.5039C241.285 32.821 242.611 33.5786 243.719 35.2383C245.017 38.1033 245.442 41.7318 245.369 45.8779C245.296 50.0338 244.725 54.6567 244.073 59.4717C242.775 69.0636 241.152 79.4361 242.669 88.0859L242.712 88.335L242.938 88.4473L245.174 89.5654L245.404 89.4365C253.587 84.8821 257.846 79.6092 260.836 73.0469C262.324 69.7794 263.497 66.1974 264.684 62.2451C265.873 58.2838 267.076 53.9576 268.637 49.1543L268.817 48.5986L268.24 48.5059C264.766 47.9499 262.734 47.1561 261.392 45.7607C260.084 44.4017 259.359 42.4 258.716 39.2207C262.685 36.4297 267.765 32.8149 273.094 29.9814C278.462 27.1273 284.001 25.1143 288.857 25.4775L292.727 32.248L292.887 32.5273L293.206 32.498L315.206 30.498L315.646 30.458L315.661 30.0176C315.84 24.7891 316.585 18.926 317.906 13.5791C319.199 8.34453 321.032 3.65195 323.388 0.526367ZM41.7988 83.6553C29.1111 97.02 19.3364 112.632 16.751 129.075C14.1609 145.548 18.7973 162.79 34.8018 179.348L35.0381 179.592L35.3525 179.462C37.7535 178.468 39.8932 176.392 41.7734 173.566C43.6569 170.736 45.306 167.115 46.71 162.968C49.5182 154.673 51.3689 144.208 52.1348 133.587C52.9006 122.965 52.5835 112.161 51.041 103.185C50.2698 98.6965 49.1899 94.6516 47.7783 91.3105C46.369 87.9751 44.614 85.3056 42.4717 83.6084L42.1133 83.3242L41.7988 83.6553ZM414.282 18.5244C419.003 19.2221 422.196 20.4217 424.204 21.9521C426.214 23.4842 427.055 25.358 427.054 27.4785C427.052 29.6316 426.181 32.0798 424.664 34.7061C423.151 37.3255 421.021 40.0801 418.562 42.835C413.642 48.3447 407.448 53.8076 402.355 58.1416C399.817 60.3022 397.539 62.1926 395.853 63.6514C395.008 64.3819 394.301 65.0133 393.774 65.5244C393.511 65.7798 393.288 66.0109 393.113 66.2129C392.945 66.4072 392.797 66.6027 392.71 66.7852L392.673 66.8623L392.664 66.9463L389.664 94.9463L389.604 95.5137L390.173 95.5C398.629 95.2964 405.804 91.4235 412.173 86.6719C415.358 84.2958 418.354 81.6894 421.213 79.2012C424.011 76.7658 426.672 74.4487 429.269 72.542L432.661 73.3906V73.957C431.556 81.0235 425.608 88.7884 417.898 95.001C410.236 101.175 400.956 105.714 393.262 106.485C387.663 103.464 384.509 100.203 382.724 96.7939C380.92 93.3504 380.483 89.7019 380.397 85.873C380.23 78.3311 381.474 70.0192 375.723 61.9268C376.087 60.9929 376.776 59.7528 377.743 58.2676C378.79 56.6602 380.145 54.7921 381.722 52.7549C384.875 48.6805 388.902 43.9469 393.094 39.2959C397.285 34.6454 401.636 30.0825 405.438 26.3496C409.148 22.7059 412.31 19.8809 414.282 18.5244ZM147.72 46.7656C138.898 63.3897 130.191 80.5931 126.667 102.922L126.576 103.5H128.661V101.211C130.23 99.6805 132.605 96.2291 135.185 91.8086C137.868 87.2099 140.809 81.5037 143.355 75.6738C145.9 69.8471 148.058 63.8781 149.163 58.7588C149.715 56.1996 150.008 53.8347 149.948 51.7969C149.889 49.7656 149.477 48.0098 148.571 46.7139L148.103 46.0439L147.72 46.7656ZM309.083 43.5059L290.083 46.5059L289.75 46.5586L289.674 46.8877C288.766 50.8088 287.162 54.5845 285.382 58.3564C283.609 62.1126 281.65 65.889 280.085 69.7393C276.94 77.4745 275.317 85.6549 279.707 95.209L279.841 95.5H284.403L284.553 95.3105C286.922 92.3173 295.724 81.5039 302.664 70.4561C306.131 64.9363 309.155 59.326 310.673 54.585C311.431 52.2157 311.824 50.0283 311.688 48.1602C311.552 46.2797 310.873 44.6929 309.467 43.6045L309.296 43.4727L309.083 43.5059ZM337.029 41.5176L325.739 44.5967L325.673 44.8906C322.998 56.8421 321.27 69.7436 323.67 82.0957L323.813 82.833L324.438 82.416L327.562 80.334L327.62 80.1982L343.62 43.1982L343.874 42.6123L343.243 42.5068L337.243 41.5068L337.135 41.4893L337.029 41.5176Z" fill="none" stroke="black" stroke-width="2" stroke-linecap="round" stroke-linejoin="round"/>
<path fill-rule="evenodd" clip-rule="evenodd" d="M215.161 114L223.161 117C226.161 119.8 228.501 135.11 227.161 141C222.851 159.95 212.631 191.24 217.161 215L222.161 237L217.161 242C193.211 233.5 204.551 170.28 208.161 146L207.161 145C185.661 146 167.441 147.19 151.161 153L148.161 176C162.571 170.61 186.311 160.29 202.161 163C203.591 181.87 162.421 186.12 147.161 192C146.611 206.36 150.311 214.11 159.161 219C174.731 211.07 180.681 195.63 194.161 187L199.161 189L200.161 191C199.161 211.37 170.611 244.46 146.161 230C134.891 223.33 136.361 211.27 131.161 198C123.511 200.33 120.511 197.39 116.161 194V193L117.161 185L132.161 178L135.161 157L112.161 163L108.161 160L106.161 151L107.161 149L138.161 139C138.421 133 139.161 131.22 143.161 129C154.081 125 150.491 132.64 155.161 137L207.161 131C207.11 125.413 208.487 119.906 211.161 115L215.161 114Z" fill="none" stroke="black" stroke-width="2" stroke-linecap="round" stroke-linejoin="round"/>
<path fill-rule="evenodd" clip-rule="evenodd" d="M620.161 121C619.831 120.33 619.491 119.67 619.161 119L609.161 117C605.891 124.44 610.331 136 606.161 147C603.951 149.83 591.501 149.5 587.161 153C571.321 165.77 557.511 214.06 589.161 219C598.001 213.45 602.671 208 610.161 202C611.251 215.29 613.551 231.8 622.161 238H627.161L630.161 234C625.001 198.69 619.771 158.73 620.161 121ZM589.161 205H587.161L583.161 198C579.881 186.71 592.631 169.1 598.161 162C598.161 162 604.831 170.27 606.161 172C605.601 188.85 597.391 194.21 589.161 205Z" fill="none" stroke="black" stroke-width="2" stroke-linecap="round" stroke-linejoin="round"/>
<path fill-rule="evenodd" clip-rule="evenodd" d="M564.161 152L556.161 149C544.861 157.21 531.161 180.66 527.161 195L522.161 199C516.261 183.73 525.871 162.89 519.161 149C517.761 147.1 519.081 148.39 517.161 147H508.161C498.161 154.93 486.241 178.28 483.161 192H481.161L480.161 148L477.161 144L472.161 143C466.721 146.28 443.221 187.33 442.161 195H440.161L438.161 148C436.331 144.9 436.761 145.37 433.161 144H428.161L406.161 200L403.161 202C403.281 170.07 408.821 147.37 407.161 124L396.161 121C388.381 135.05 389.821 165.17 390.161 183C384.001 190 348.971 217.15 344.161 196C359.621 184.15 375.691 170.37 375.161 145L371.161 140C348.311 134.45 326.831 164.8 331.161 190L319.161 201L317.161 199C320.961 185.7 324.571 146 306.161 146C294.031 156.29 280.111 176.38 274.161 192L271.161 194V150L261.161 149C251.991 158.05 249.451 171.91 241.161 182V184C237.591 174 245.701 161.16 241.161 151C238.951 147.13 236.801 146.42 231.161 146H230.161C221.361 159.94 223.251 201.44 226.161 219C229.601 221 231.091 221.94 237.161 222C245.471 212.88 247.931 199.52 255.161 189V187C259.071 197.55 255.821 208 265.161 213C269.461 215 273.371 213.29 276.161 211L303.161 172V170C308.681 185.12 302.261 201.94 309.161 218C321.571 219.19 322.341 210.17 330.161 209C336.031 208.12 342.531 218 350.161 219C368.261 221.28 379.871 205.12 390.161 198C389.511 204.8 390.011 216.88 393.161 223C394.751 225.89 395.581 226.28 398.161 228H407.161L424.161 192V190C428.161 201 424.021 211.29 433.161 217C436.861 218.27 441.361 216.47 444.161 214C451.301 209.22 461.291 191.48 463.161 182L464.161 181H465.161L468.161 208L472.161 213C490.931 215.79 499.921 193 504.161 179L506.161 178C505.601 196.77 504.741 210.92 517.161 218L528.161 216C534.811 205.26 545.331 195.06 548.161 181C560.331 198.52 545.471 227.46 574.161 226C574.831 223.67 575.491 221.33 576.161 219C560.331 198.55 563.571 184.63 564.161 152ZM359.161 155C361.991 158.71 354.481 165 352.161 170L350.161 171H349.161C350.781 162.64 354.561 160 359.161 155Z" fill="none" stroke="black" stroke-width="2" stroke-linecap="round" stroke-linejoin="round"/>
</g>
<defs>
<clipPath id="clip0_86_2">
<rect width="630.161" height="242" fill="white"/>
</clipPath>
</defs>
</svg>