<svg width="841" height="320" viewBox="0 0 841 320" fill="none" xmlns="http://www.w3.org/2000/svg">
<path d="M10.002 63.0007C10.1687 62.1078 24.1243 47.668 27.3203 43.8879C27.3203 43.8879 41.506 29.7658 44.502 30.0002C48.7945 30.3361 52.7877 42.8471 57.5641 57.3978C60.9215 67.6257 65.4983 87.8522 68.4687 102.612C71.4391 117.371 78.4457 159.604 78.4457 159.604C79.5225 167.485 78.5478 181.825 78.4457 192.5C78.3764 199.747 77.002 212 68.4687 235C68.4687 235 55.9313 253.451 43.002 244.5C36.502 240 26.8461 225.466 19.502 201.5C17.4543 194.818 15.0947 181.139 15.002 176.5C14.5772 155.253 23.502 141.636 23.502 141.636C31.7474 128.716 47.132 112.826 58.5274 107.751C63.1545 104.275 69.3232 102.982 74.6339 97.936C86.002 87.1338 98.2529 78.1762 98.2529 78.1762L140.002 47.0002C143.519 44.5043 127.096 65.8279 121.502 74.0002C114.653 84.0053 108.503 102.444 106.502 116C104.972 126.369 103.002 132.989 106.502 144.998C116.002 173 145.035 131.04 145.035 131.04C145.035 131.04 152.763 116.845 156.214 110.362C159.709 103.796 162.003 99.4052 165.513 92.6831C174.501 75.4678 184.167 64.2647 187.921 59.5343C191.179 55.4281 194.944 53.0779 198.391 50.7233M198.391 50.7233C202.993 47.5802 209.724 48.1147 213.989 49.2516M198.391 50.7233C218.002 50.7233 213.989 49.2516 213.989 49.2516M198.391 50.7233C193.633 56.7748 175.011 89.6504 170.179 99.7255C164.74 111.067 162.026 122.069 160.751 129.308C159.156 138.364 158.508 145.214 160.751 148C161.82 149.328 165.227 153.763 167.502 153.5C172.336 152.943 180.952 140.793 184.002 135.5C186.428 131.29 194.162 119.378 197.002 104C198.665 98.8379 204.56 75.3294 206.254 69.4997C206.608 68.2808 213.711 48.619 213.989 49.2516M213.989 49.2516C207.477 66.0002 207.546 91.3024 206.851 99.049C205.372 115.543 212.523 133.663 213.989 137C216.864 139.3 217.622 139.561 221.002 138.5C230.562 135.5 239.715 115.512 244.681 106.285C252.107 92.4884 258.095 82.2847 263.02 73.154C265.627 68.3213 268.616 60.9429 271.225 53.9859C272.922 49.4591 274.239 46.1996 274.521 45.6743C275.306 44.211 272.047 52.7778 268.212 61.8851C263.706 72.5862 263.671 85.7807 262.347 95.0002C260.387 108.639 261.534 117.015 263.02 121.987C264.307 126.29 265.584 135.44 266.502 137C268.358 140.158 268.212 138.5 268.212 138.5C271.502 138.452 283.408 117.991 290.002 108.5C297.821 97.2461 311.147 65.8482 313.502 61.8851C321.723 48.0491 318.659 60.7119 318.002 65.0002C315.257 82.9257 315.257 82.9257 315.257 82.9257C313.338 99.2033 312.791 115.917 313.502 117.423C315.012 120.624 316.612 128.166 321.502 131.04C325.706 133.511 344.067 122.794 347.502 118.5C353.502 111 358.963 99.2072 358.963 99.2072C358.963 99.2072 367.546 84.6008 370.391 78.1258C373.494 71.0653 375.676 64.4228 377.21 59.3234C378.597 54.7084 379.256 49.3566 379.217 48.2562C379.025 42.8184 371.75 66.9008 363.816 82.9576C358.429 93.861 358.501 105.402 360.506 117.423C361.289 122.122 362.824 125.863 364.183 128.665C366.179 132.778 369.509 137.707 377.21 137.5C383.957 137.319 392.994 126.093 396.502 121.5C401.914 114.416 406.02 109.477 410.002 97.0002C414.427 83.1351 418.68 68.7587 420.995 62.696C424.542 53.4056 430.377 39.2191 433.519 29.8271C435.363 24.318 437.328 19.0306 438.005 15.0465C438.347 13.0339 438.407 11.0878 438.821 10.2714C440.225 7.50786 437.071 26.2987 432.908 47.0917C430.256 60.337 428.739 70.2911 427.951 77.5025C426.946 86.7093 424.784 95.9339 424.784 95.9339C424.784 95.9339 423.088 110.009 424.784 113C425.798 114.787 429.15 123.28 431.002 124C433.659 125.034 439.335 118.898 440.502 117.423C444.002 113 452.656 90.7373 464.002 74.0002C469.906 65.2901 482.717 49.9154 482.717 49.9154M482.717 49.9154C482.717 49.9154 487.739 15.6262 488.002 15.0465C488.8 13.2844 482.717 49.9154 482.717 49.9154ZM482.717 49.9154C477.99 66.9171 477.905 80.4558 477.502 86.0002C476.433 100.701 478.002 113.5 480.002 120C482.002 126.5 485.933 133.234 485.933 133.234" stroke="black" stroke-width="20" stroke-linecap="round"/>
<path d="M354.299 53.6125C354.422 53.6125 362.763 53.6125 376.399 53.4156C383.964 53.3063 391.253 52.2949 399.939 51.971C411.204 51.5509 420.384 50.9063 427.335 50.5397C431.3 50.3306 441.661 49.6979 455.711 49.2878C470.327 46.9692 478.778 46.102 489.844 45.6751C492.735 45.5851 494.731 45.4997 497.156 44.3506" stroke="black" stroke-width="20" stroke-linecap="round"/>
<path d="M505.354 82.9362C506.817 82.8267 511.907 81.7876 516.169 79.5612C522.259 76.3797 536.221 62.4007 542.973 54.4758C547.193 49.5221 549.081 45.316 551.033 42.2678C551.509 41.5243 551.932 40.8224 551.726 40.5999C547.428 35.9672 535.861 53.7122 530.27 58.8942C525.716 63.1155 521.242 72.3707 517.331 83.7948C515.691 88.583 514.952 92.0624 511.857 101.966C508.197 113.678 510.663 124.902 513.008 128.771C513.948 130.324 515.603 131.258 517.31 132.087C522.452 134.588 530.742 132.106 535.412 130.182C542.384 127.311 553.482 118.392 564.539 108.263C566.016 106.644 566.553 106.027 567.1 105.234C567.646 104.44 568.186 103.489 568.742 102.508" stroke="black" stroke-width="20" stroke-linecap="round"/>
<path d="M194.655 179.213C194.618 180.518 191.614 200.527 189.444 215.822C188.274 224.071 188.126 233.078 187.209 240.17C185.5 253.382 187.209 240.17 187.597 268.451C187.698 275.801 187.209 279.142 194.655 293.5C196.861 297.755 207.553 305.168 211.002 304.5C236.228 303 253.829 269.68 259.002 263.5" stroke="black" stroke-width="20" stroke-linecap="round"/>
<path d="M150.17 207.128C150.23 207.128 178.502 200.546 178.502 200.546C178.502 200.546 189.47 198.215 206.502 195.5C223.534 192.785 274.502 185 274.502 185" stroke="black" stroke-width="20" stroke-linecap="round"/>
<path d="M166.002 255.018C168.151 254.96 179.547 253.352 196.924 249.088C206.791 246.667 218.416 242.31 224.926 240.026C232.385 237.3 239.391 234.761 248.97 231.364C252.52 230.049 253.407 229.567 254.984 229" stroke="black" stroke-width="20" stroke-linecap="round"/>
<path d="M288.735 166C288.638 170.849 285.986 193.788 283.933 205.715C282.452 214.318 279.907 225.7 278.062 239.491C275.742 256.842 274.638 269.906 275.108 276.827C275.998 289.927 278.179 293.267 279.869 300.223C280.604 302.891 279.802 299.531 281.002 303" stroke="black" stroke-width="20" stroke-linecap="round"/>
<path d="M311.454 203.408C311.454 203.438 311.454 203.468 311.478 213.278C311.503 223.089 311.552 242.678 311.649 254.779C311.779 270.903 310.942 286.603 311.454 288.5C311.674 289.318 318.502 277.567 318.502 277.567C318.502 277.567 330.161 256.452 332.399 252.068C337.905 241.282 347.065 221.559 351.18 212.472C352.269 210.066 350.516 230.759 351.18 250.925C351.695 266.577 353.164 270.099 355.499 273.91C356.028 274.773 356.696 275.269 357.393 275.399C358.878 275.677 365.333 268.008 375.653 254.947C380.468 248.852 383.983 243.496 388.499 237.816C397.96 225.917 405.715 217.245 408.994 212.472C410.951 209.623 412.731 223.24 414.452 245.917C415.382 258.181 416.432 264.874 416.998 269.677C417.456 273.562 418.663 278.137 419.502 279.674C421.194 282.776 429.042 273.37 445.512 259.182C451.692 253.858 464.739 244.825 470.502 239.245C478.502 231.5 484.002 223 484.002 223C484.002 223 489.808 213.5 489.808 201.412C489.808 199.312 489.534 197.494 488.365 196.194C487.041 194.721 484.135 194.731 480.113 195.375C468.614 197.217 458.502 216.461 458.502 216.461C458.502 216.461 449.799 232.586 448.856 239.245C447.913 245.905 446.217 254.155 448.856 264.033C450.854 271.514 457.145 273.987 462.586 277.567C468.17 281.242 474.83 280.608 480.361 279.131C489.222 276.767 494.641 270.544 498.559 267.492C502.859 264.143 505.9 260.37 508.716 255.452C508.716 255.452 522.413 222.039 525.698 210.043C527.15 204.741 528.219 200.926 529.35 197.525M529.35 197.525C529.35 197.525 533.197 180.333 534.642 175.619C534.382 163.637 530.746 192.45 529.35 197.525ZM529.35 197.525C528.276 201.43 527.193 243.191 527.193 243.191C527.193 243.191 529.017 271.565 529.35 279.674C529.519 283.781 533.4 291.854 534.642 295.5C540.923 301.489 543.806 280.439 554.002 260.5C557.959 252.762 565.478 234.211 569.159 228.5C577.076 216.218 575.879 200.246 575.553 203.5C573.502 224 575.31 232.326 575.553 249.677C575.733 262.42 575.657 266.862 578.002 274C578.699 276.123 578.888 279.792 581.002 281C584.502 283 589.018 279.563 595.002 271.5C600.986 263.438 613.431 234.849 619.502 226C619.502 226 630.279 204.081 630.502 204C631.336 203.696 631.256 224.24 631.502 244.5C631.715 262.036 634.012 270.734 636.002 274.32C636.553 275.312 638.719 275.613 639.502 276C641.041 276.762 651.502 267.5 657.967 249.677C666.901 225.048 678.872 213.031 681.002 210C682.065 208.487 684.768 207.096 684.163 219C683.502 232 684.904 232.514 684.163 253.5C683.706 266.444 687.484 281.143 690.502 282.5C700.502 286.997 721.538 243.102 721.538 243.102C721.538 243.102 738.655 215.496 741.502 212C742.201 211.142 742.317 235.794 742.502 256.5C742.611 268.736 753.966 290.636 757.002 296" stroke="black" stroke-width="20" stroke-linecap="round"/>
<path d="M811.896 216.8C811.395 216.072 808.404 213.46 804.121 211.891C801.672 210.994 798.078 211.034 794.387 211.248C789.592 211.525 780.451 222.901 780.451 222.901C780.451 222.901 773.05 234.5 771.042 242.173C768.438 252.122 768.784 265.207 771.042 270.5C773.169 275.485 779.263 283.491 783.002 284C786.689 284.502 802.732 268 806.002 264C810.198 258.868 810.888 252.594 815.502 238C817.561 231.488 819.174 184.535 819.174 184.535M819.174 184.535L819.154 170.397C819.225 169.332 819.174 184.535 819.174 184.535ZM819.174 184.535C819.174 184.535 818.236 209.375 818.502 222C818.864 239.199 821.793 246.487 822.248 253.5C822.537 257.951 822.256 266.695 824.502 277C826.748 287.308 830.193 305.733 831.002 310" stroke="black" stroke-width="20" stroke-linecap="round"/>
</svg>
