<svg width="235" height="233" viewBox="0 0 235 233" fill="none" xmlns="http://www.w3.org/2000/svg">
  <style>
    /***************************************************
 * Generated by SVG Artista on 11/20/2025, 1:38:44 PM
 * MIT license (https://opensource.org/licenses/MIT)
 * W. https://svgartista.net
 **************************************************/

@-webkit-keyframes animate-svg-stroke-1 {
  0% {
    stroke-dashoffset: 502.47979736328125px;
    stroke-dasharray: 502.47979736328125px;
  }

  100% {
    stroke-dashoffset: 0;
    stroke-dasharray: 502.47979736328125px;
  }
}

@keyframes animate-svg-stroke-1 {
  0% {
    stroke-dashoffset: 502.47979736328125px;
    stroke-dasharray: 502.47979736328125px;
  }

  100% {
    stroke-dashoffset: 0;
    stroke-dasharray: 502.47979736328125px;
  }
}

.svg-elem-1 {
  -webkit-animation: animate-svg-stroke-1 0.5s ease-in-out 0s both;
          animation: animate-svg-stroke-1 0.5s ease-in-out 0s both;
}

@-webkit-keyframes animate-svg-stroke-2 {
  0% {
    stroke-dashoffset: 203.8142852783203px;
    stroke-dasharray: 203.8142852783203px;
  }

  100% {
    stroke-dashoffset: 0;
    stroke-dasharray: 203.8142852783203px;
  }
}

@keyframes animate-svg-stroke-2 {
  0% {
    stroke-dashoffset: 203.8142852783203px;
    stroke-dasharray: 203.8142852783203px;
  }

  100% {
    stroke-dashoffset: 0;
    stroke-dasharray: 203.8142852783203px;
  }
}

.svg-elem-2 {
  -webkit-animation: animate-svg-stroke-2 0.25s ease-in-out 0.5s both;
          animation: animate-svg-stroke-2 0.25s ease-in-out 0.5s both;
}

@-webkit-keyframes animate-svg-stroke-3 {
  0% {
    stroke-dashoffset: 128.34339904785156px;
    stroke-dasharray: 128.34339904785156px;
  }

  100% {
    stroke-dashoffset: 0;
    stroke-dasharray: 128.34339904785156px;
  }
}

@keyframes animate-svg-stroke-3 {
  0% {
    stroke-dashoffset: 128.34339904785156px;
    stroke-dasharray: 128.34339904785156px;
  }

  100% {
    stroke-dashoffset: 0;
    stroke-dasharray: 128.34339904785156px;
  }
}

.svg-elem-3 {
  -webkit-animation: animate-svg-stroke-3 0.15s ease-in-out .75s both;
          animation: animate-svg-stroke-3 0.15s ease-in-out .75s both;
}

@-webkit-keyframes animate-svg-stroke-4 {
  0% {
    stroke-dashoffset: 94.97420501708984px;
    stroke-dasharray: 94.97420501708984px;
  }

  100% {
    stroke-dashoffset: 0;
    stroke-dasharray: 94.97420501708984px;
  }
}

@keyframes animate-svg-stroke-4 {
  0% {
    stroke-dashoffset: 94.97420501708984px;
    stroke-dasharray: 94.97420501708984px;
  }

  100% {
    stroke-dashoffset: 0;
    stroke-dasharray: 94.97420501708984px;
  }
}

.svg-elem-4 {
  -webkit-animation: animate-svg-stroke-4 0.15s ease-in-out .9s both;
          animation: animate-svg-stroke-4 0.15s ease-in-out .9s both;
}

  </style>

  <path d="M8.00146 41.0033C8.1682 40.1103 22.1238 25.6705 25.3198 21.8904C25.3198 21.8904 39.5055 7.76836 42.5015 8.00276C46.7941 8.33862 50.7872 20.8497 55.5636 35.4003L66.4682 80.6143C69.4386 95.3738 76.4452 137.607 76.4452 137.607C77.522 145.488 76.5473 159.827 76.4452 170.503C76.3759 177.75 75.0015 190.003 66.4682 213.003C66.4682 213.003 53.9308 231.454 41.0015 222.503C34.5015 218.003 24.8456 203.469 17.5015 179.503C15.4538 172.821 13.0942 159.142 13.0015 154.503C12.5767 133.256 21.5015 119.639 21.5015 119.639C29.7469 106.718 56.5269 85.7533 56.5269 85.7533L72.5015 74.4999L96.2524 56.1788" stroke="black" stroke-width="16" stroke-linecap="round" class="svg-elem-1"></path>
<path d="M8.00146 41.0033C8.1682 40.1103 22.1238 25.6705 25.3198 21.8904C25.3198 21.8904 39.5055 7.76836 42.5015 8.00276C46.7941 8.33862 50.7872 20.8497 55.5636 35.4003L66.4682 80.6143C69.4386 95.3738 76.4452 137.607 76.4452 137.607C77.522 145.488 76.5473 159.827 76.4452 170.503C76.3759 177.75 75.0015 190.003 66.4682 213.003C66.4682 213.003 53.9308 231.454 41.0015 222.503C34.5015 218.003 24.8456 203.469 17.5015 179.503C15.4538 172.821 13.0942 159.142 13.0015 154.503C12.5767 133.256 21.5015 119.639 21.5015 119.639C29.7469 106.718 56.5269 85.7533 56.5269 85.7533L72.5015 74.4999L177.001 8.00276" stroke="black" stroke-width="16" stroke-linecap="round"/>
<path d="M99.9494 32.9884C100.412 34.2099 105.236 53.8592 109.042 68.832C111.094 76.9065 114.38 85.2939 116.227 92.2029C119.666 105.073 116.227 92.2029 127.333 118.214C130.219 124.974 131.036 128.251 143.38 138.702C147.038 141.8 159.745 144.593 162.681 142.665C185.444 131.692 189.063 94.1822 191.5 86.5004" stroke="black" stroke-width="16" stroke-linecap="round"/>
<path d="M102.253 113.995C104.22 113.125 114.149 107.307 128.602 96.7596C136.809 90.7702 145.906 82.3234 151.06 77.7363C156.923 72.3801 162.439 67.3696 170.009 60.5868C172.792 58.0222 173.429 57.2389 174.673 56.1156" stroke="black" stroke-width="16" stroke-linecap="round"/>

</svg>

